HIERARCHY
ROOT Hips
{
  OFFSET 613.057 91.7616 435.46
  CHANNELS 6 Xposition Yposition Zposition Zrotation Xrotation Yrotation
  JOINT RightUpLeg
  {
    OFFSET -9.26292 -1.59724 0.00830305
    CHANNELS 3 Zrotation Xrotation Yrotation
    JOINT RightLeg
    {
      OFFSET -0.0569096 -41.8785 0.00263593
      CHANNELS 3 Zrotation Xrotation Yrotation
      JOINT RightFoot
      {
        OFFSET -0.44833 -41.2852 1.36433
        CHANNELS 3 Zrotation Xrotation Yrotation
        End Site
        {
          OFFSET 0 -7.69 17.5
        }
      }
    }
  }
  JOINT LeftUpLeg
  {
    OFFSET 9.23006 -1.59197 0.0149286
    CHANNELS 3 Zrotation Xrotation Yrotation
    JOINT LeftLeg
    {
      OFFSET -0.042098 -41.8722 0.0100426
      CHANNELS 3 Zrotation Xrotation Yrotation
      JOINT LeftFoot
      {
        OFFSET -0.696698 -41.7601 0.971093
        CHANNELS 3 Zrotation Xrotation Yrotation
        End Site
        {
          OFFSET 0 -7.69 17.5
        }
      }
    }
  }
  JOINT Spine
  {
    OFFSET 0.0179698 14.302 -0.0285634
    CHANNELS 3 Zrotation Xrotation Yrotation
    JOINT Spine1
    {
      OFFSET 0.0131699 9.71531 -0.00819964
      CHANNELS 3 Zrotation Xrotation Yrotation
      JOINT Spine2
      {
        OFFSET 0.0139181 10.1266 0.0364806
        CHANNELS 3 Zrotation Xrotation Yrotation
        JOINT Spine3
        {
          OFFSET 0.00675107 9.72482 0.0124292
          CHANNELS 3 Zrotation Xrotation Yrotation
          JOINT Neck
          {
            OFFSET 0.0172893 10.385 0.0690337
            CHANNELS 3 Zrotation Xrotation Yrotation
            JOINT Head
            {
              OFFSET 0.0673903 9.45916 0.0366108
              CHANNELS 3 Zrotation Xrotation Yrotation
              End Site
              {
                OFFSET 0 15.95 0
              }
            }
          }
          JOINT RightShoulder
          {
            OFFSET -3.19083 6.91981 0.0279818
            CHANNELS 3 Zrotation Xrotation Yrotation
            JOINT RightArm
            {
              OFFSET -12.7912 -0.0312545 0.0221894
              CHANNELS 3 Zrotation Xrotation Yrotation
              JOINT RightForeArm
              {
                OFFSET -26.4792 -0.0463709 -0.029191
                CHANNELS 3 Zrotation Xrotation Yrotation
                JOINT RightHand
                {
                  OFFSET -26.0115 -0.0295049 0.0421394
                  CHANNELS 3 Zrotation Xrotation Yrotation
                  JOINT RightHandThumb1
                  {
                    OFFSET -2.48905 0.190105 3.12053
                    CHANNELS 3 Zrotation Xrotation Yrotation
                    JOINT RightHandThumb2
                    {
                      OFFSET -3.68274 0 0
                      CHANNELS 3 Zrotation Xrotation Yrotation
                      JOINT RightHandThumb3
                      {
                        OFFSET -2.55832 0 0
                        CHANNELS 3 Zrotation Xrotation Yrotation
                        End Site
                        {
                          OFFSET -2.194 0 0
                        }
                      }
                    }
                  }
                  JOINT RightInHandIndex
                  {
                    OFFSET -3.22368 0.508421 1.97842
                    CHANNELS 3 Zrotation Xrotation Yrotation
                    JOINT RightHandIndex1
                    {
                      OFFSET -5.21684 -0.091368 0.999158
                      CHANNELS 3 Zrotation Xrotation Yrotation
                      JOINT RightHandIndex2
                      {
                        OFFSET -3.61937 0 0
                        CHANNELS 3 Zrotation Xrotation Yrotation
                        JOINT RightHandIndex3
                        {
                          OFFSET -2.0521 0 0
                          CHANNELS 3 Zrotation Xrotation Yrotation
                          End Site
                          {
                            OFFSET -1.805 0 0
                          }
                        }
                      }
                    }
                  }
                  JOINT RightInHandMiddle
                  {
                    OFFSET -3.38211 0.517263 0.756737
                    CHANNELS 3 Zrotation Xrotation Yrotation
                    JOINT RightHandMiddle1
                    {
                      OFFSET -5.17411 -0.084 0.313895
                      CHANNELS 3 Zrotation Xrotation Yrotation
                      JOINT RightHandMiddle2
                      {
                        OFFSET -3.94947 0 0
                        CHANNELS 3 Zrotation Xrotation Yrotation
                        JOINT RightHandMiddle3
                        {
                          OFFSET -2.47579 0 0
                          CHANNELS 3 Zrotation Xrotation Yrotation
                          End Site
                          {
                            OFFSET -1.975 0 0
                          }
                        }
                      }
                    }
                  }
                  JOINT RightInHandRing
                  {
                    OFFSET -3.36516 0.537895 -0.128947
                    CHANNELS 3 Zrotation Xrotation Yrotation
                    JOINT RightHandRing1
                    {
                      OFFSET -4.63474 -0.022105 -0.478947
                      CHANNELS 3 Zrotation Xrotation Yrotation
                      JOINT RightHandRing2
                      {
                        OFFSET -3.44238 0 0
                        CHANNELS 3 Zrotation Xrotation Yrotation
                        JOINT RightHandRing3
                        {
                          OFFSET -2.3881 0 0
                          CHANNELS 3 Zrotation Xrotation Yrotation
                          End Site
                          {
                            OFFSET -1.857 0 0
                          }
                        }
                      }
                    }
                  }
                  JOINT RightInHandPinky
                  {
                    OFFSET -3.16105 0.469368 -1.20179
                    CHANNELS 3 Zrotation Xrotation Yrotation
                    JOINT RightHandPinky1
                    {
                      OFFSET -4.14105 -0.022105 -1.09053
                      CHANNELS 3 Zrotation Xrotation Yrotation
                      JOINT RightHandPinky2
                      {
                        OFFSET -2.75653 0 0
                        CHANNELS 3 Zrotation Xrotation Yrotation
                        JOINT RightHandPinky3
                        {
                          OFFSET -1.74189 0 0
                          CHANNELS 3 Zrotation Xrotation Yrotation
                          End Site
                          {
                            OFFSET -1.645 0 0
                          }
                        }
                      }
                    }
                  }
                }
              }
            }
          }
          JOINT LeftShoulder
          {
            OFFSET 3.2121 6.89815 -0.0421478
            CHANNELS 3 Zrotation Xrotation Yrotation
            JOINT LeftArm
            {
              OFFSET 12.806 -0.014883 -0.0927143
              CHANNELS 3 Zrotation Xrotation Yrotation
              JOINT LeftForeArm
              {
                OFFSET 26.5458 0.0720959 -0.0481554
                CHANNELS 3 Zrotation Xrotation Yrotation
                JOINT LeftHand
                {
                  OFFSET 25.9982 0.145931 -0.0622226
                  CHANNELS 3 Zrotation Xrotation Yrotation
                  JOINT LeftHandThumb1
                  {
                    OFFSET 2.48905 0.190105 3.12053
                    CHANNELS 3 Zrotation Xrotation Yrotation
                    JOINT LeftHandThumb2
                    {
                      OFFSET 3.68274 0 0
                      CHANNELS 3 Zrotation Xrotation Yrotation
                      JOINT LeftHandThumb3
                      {
                        OFFSET 2.55832 0 0
                        CHANNELS 3 Zrotation Xrotation Yrotation
                        End Site
                        {
                          OFFSET 2.194 0 0
                        }
                      }
                    }
                  }
                  JOINT LeftInHandIndex
                  {
                    OFFSET 3.22368 0.508421 1.97842
                    CHANNELS 3 Zrotation Xrotation Yrotation
                    JOINT LeftHandIndex1
                    {
                      OFFSET 5.21684 -0.091368 0.999158
                      CHANNELS 3 Zrotation Xrotation Yrotation
                      JOINT LeftHandIndex2
                      {
                        OFFSET 3.61937 0 0
                        CHANNELS 3 Zrotation Xrotation Yrotation
                        JOINT LeftHandIndex3
                        {
                          OFFSET 2.0521 0 0
                          CHANNELS 3 Zrotation Xrotation Yrotation
                          End Site
                          {
                            OFFSET 1.805 0 0
                          }
                        }
                      }
                    }
                  }
                  JOINT LeftInHandMiddle
                  {
                    OFFSET 3.38211 0.517263 0.756737
                    CHANNELS 3 Zrotation Xrotation Yrotation
                    JOINT LeftHandMiddle1
                    {
                      OFFSET 5.17411 -0.084 0.313895
                      CHANNELS 3 Zrotation Xrotation Yrotation
                      JOINT LeftHandMiddle2
                      {
                        OFFSET 3.94947 0 0
                        CHANNELS 3 Zrotation Xrotation Yrotation
                        JOINT LeftHandMiddle3
                        {
                          OFFSET 2.47579 0 0
                          CHANNELS 3 Zrotation Xrotation Yrotation
                          End Site
                          {
                            OFFSET 1.975 0 0
                          }
                        }
                      }
                    }
                  }
                  JOINT LeftInHandRing
                  {
                    OFFSET 3.36516 0.537895 -0.128947
                    CHANNELS 3 Zrotation Xrotation Yrotation
                    JOINT LeftHandRing1
                    {
                      OFFSET 4.63474 -0.022105 -0.478947
                      CHANNELS 3 Zrotation Xrotation Yrotation
                      JOINT LeftHandRing2
                      {
                        OFFSET 3.44238 0 0
                        CHANNELS 3 Zrotation Xrotation Yrotation
                        JOINT LeftHandRing3
                        {
                          OFFSET 2.3881 0 0
                          CHANNELS 3 Zrotation Xrotation Yrotation
                          End Site
                          {
                            OFFSET 1.857 0 0
                          }
                        }
                      }
                    }
                  }
                  JOINT LeftInHandPinky
                  {
                    OFFSET 3.16105 0.469368 -1.20179
                    CHANNELS 3 Zrotation Xrotation Yrotation
                    JOINT LeftHandPinky1
                    {
                      OFFSET 4.14105 -0.022105 -1.09053
                      CHANNELS 3 Zrotation Xrotation Yrotation
                      JOINT LeftHandPinky2
                      {
                        OFFSET 2.75653 0 0
                        CHANNELS 3 Zrotation Xrotation Yrotation
                        JOINT LeftHandPinky3
                        {
                          OFFSET 1.74189 0 0
                          CHANNELS 3 Zrotation Xrotation Yrotation
                          End Site
                          {
                            OFFSET 1.645 0 0
                          }
                        }
                      }
                    }
                  }
                }
              }
            }
          }
        }
      }
    }
  }
}
MOTION
Frames:	5
Frame Time:	0.00833333
623.406 88.7449 415.467 33.4719 25.2848 -51.3763 -30.4225 -60.3335 -26.0176 1.15378 26.9648 -25.2849 8.60236 0.0244971 23.5586 7.08117 -69.2486 -15.271 -5.46447 34.1851 -0.142329 -10.9582 -10.3016 19.5934 5.88052 8.157 -1.77979 1.44144 2.09391 -0.246871 2.38968 3.47594 -0.331986 -0.464552 -0.872133 0.149818 -0.466178 -0.872617 0.155376 -8.21163 -15.5817 2.77542 -2.74065 -9.90848 -3.92392 71.8538 20.3017 65.0538 0.981968 -23.0546 -7.06869 36.4367 -9.11351 -12.0011 28.184 10.7294 19.1592 5.75576e-15 5.1684e-15 -10 4.26424e-15 3.57812e-15 -10 6.36111e-15 6.36111e-15 -0 19.9818 0.871897 2.3964 24 3.27995e-15 -0 20 7.95139e-15 1.27222e-14 6.36111e-15 6.36111e-15 -0 20 -3.18055e-15 1.90833e-14 24 2.5345e-15 9.54166e-15 20 0 1.27222e-14 6.36111e-15 6.36111e-15 -0 19.9748 -1.02565 -2.81938 24 3.97569e-15 9.54166e-15 20 3.18055e-15 -0 6.36111e-15 6.36111e-15 -0 19.7815 -3.00948 -8.30515 24 -3.97569e-15 2.54444e-14 20 7.95139e-16 9.54166e-15 -0.862964 -11.1288 -28.6759 -38.6337 40.3858 -71.5338 32.905 -67.9636 27.8444 4.62931 12.2791 -6.38362 -28.184 10.7294 -19.1592 4.07085e-15 -4.77083e-15 10 5.60818e-16 -3.18055e-15 10 8.19987e-16 0 -8.07563e-16 -19.9818 0.871897 -2.3964 -24 0 -9.54166e-15 -20 0 -7.95139e-15 8.19987e-16 0 -8.07563e-16 -20 1.59028e-15 -5.56597e-15 -24 -3.18055e-15 -4.77083e-15 -20 1.59028e-15 -1.11319e-14 8.19987e-16 0 -8.07563e-16 -19.9748 -1.02565 2.81938 -24 0 -7.95139e-15 -20 2.38542e-15 -4.77083e-15 8.19987e-16 0 -8.07563e-16 -19.7815 -3.00948 8.30515 -24 3.18055e-15 -9.54166e-15 -20 7.95139e-16 -3.18055e-15 
623.432 88.733 415.493 33.5553 25.1397 -51.6685 -30.2408 -60.4447 -25.7348 1.09583 26.9321 -25.2553 8.60885 0.110096 23.6713 7.39429 -69.1956 -14.9037 -5.48204 34.2886 -0.105512 -10.937 -10.4178 19.7187 5.8687 8.161 -1.80593 1.43812 2.09634 -0.254017 2.38436 3.47983 -0.344213 -0.470427 -0.872032 0.157537 -0.472097 -0.874215 0.163166 -8.30384 -15.5907 2.91274 -2.72308 -9.868 -3.95138 71.8323 20.2266 65.0246 1.12922 -23.1461 -6.80153 36.5195 -9.06698 -12.0312 28.184 10.7294 19.1592 4.00074e-15 4.37326e-15 -10 1.98223e-15 4.37326e-15 -10 -5.29669e-31 -9.54166e-15 -3.18055e-15 19.9818 0.871897 2.3964 24 -1.88845e-15 2.8625e-14 20 3.18055e-15 -0 -5.29669e-31 -9.54166e-15 -3.18055e-15 20 -7.95139e-15 3.18055e-15 24 4.22417e-16 1.90833e-14 20 0 1.27222e-14 -5.29669e-31 -9.54166e-15 -3.18055e-15 19.9748 -1.02565 -2.81938 24 -2.18663e-15 2.22639e-14 20 1.59028e-15 -0 -5.29669e-31 -9.54166e-15 -3.18055e-15 19.7815 -3.00948 -8.30515 24 2.38542e-15 9.54166e-15 20 5.56597e-15 9.54166e-15 -0.863984 -11.1244 -28.7263 -38.5817 40.3559 -71.5597 32.8698 -67.8649 27.8126 4.73824 12.2365 -6.38274 -28.184 10.7294 -19.1592 -8.28682e-15 -7.95139e-15 10 6.73965e-15 -1.59028e-15 10 -1.73937e-16 -4.77083e-15 1.26104e-15 -19.9818 0.871897 -2.3964 -24 -3.18055e-15 3.18055e-15 -20 -2.38542e-15 7.95139e-15 -1.73937e-16 -4.77083e-15 1.26104e-15 -20 -1.59028e-15 -1.59028e-15 -24 -4.77083e-15 -0 -20 -3.18055e-15 -0 -1.73937e-16 -4.77083e-15 1.26104e-15 -19.9748 -1.02565 2.81938 -24 4.77083e-15 1.59028e-15 -20 7.95139e-16 9.54166e-15 -1.73937e-16 -4.77083e-15 1.26104e-15 -19.7815 -3.00948 8.30515 -24 4.77083e-15 -0 -20 3.18055e-15 -0 
623.457 88.7218 415.514 33.6467 24.9949 -51.9804 -30.0711 -60.5576 -25.4723 1.05223 26.8957 -25.2068 8.61636 0.197851 23.7885 7.74442 -69.1384 -14.498 -5.50385 34.395 -0.0635886 -10.92 -10.5463 19.846 5.85171 8.16111 -1.82949 1.43325 2.09727 -0.260781 2.37701 3.48194 -0.35592 -0.475342 -0.87391 0.166378 -0.47705 -0.875844 0.172058 -8.37584 -15.6064 3.06951 -2.69308 -9.82335 -3.98016 71.7873 20.16 65.0217 1.24255 -23.257 -6.58423 36.603 -9.00577 -12.0561 28.184 10.7294 19.1592 4.31743e-15 1.59028e-15 -10 1.01771e-15 1.19271e-15 -10 3.18055e-15 -3.18055e-15 -3.18055e-15 19.9818 0.871897 2.3964 24 -3.97569e-16 -0 20 0 9.54166e-15 3.18055e-15 -3.18055e-15 -3.18055e-15 20 -1.59028e-15 -0 24 -5.96354e-16 -3.18055e-15 20 0 6.36111e-15 3.18055e-15 -3.18055e-15 -3.18055e-15 19.9748 -1.02565 -2.81938 24 1.39149e-15 -0 20 -3.18055e-15 -9.54166e-15 3.18055e-15 -3.18055e-15 -3.18055e-15 19.7815 -3.00948 -8.30515 24 5.96354e-15 -0 20 3.18055e-15 -0 -0.858119 -11.1206 -28.776 -38.3672 40.431 -71.7635 33.2135 -67.8561 28.1289 4.84393 12.1899 -6.38363 -28.184 10.7294 -19.1592 4.35126e-15 -6.36111e-15 10 -9.12804e-15 -3.18055e-15 10 7.70291e-16 0 4.04403e-15 -19.9818 0.871897 -2.3964 -24 3.18055e-15 4.77083e-15 -20 -1.59028e-15 1.59028e-15 7.70291e-16 0 4.04403e-15 -20 -3.18055e-15 5.56597e-15 -24 0 6.36111e-15 -20 -2.38542e-15 -1.59028e-15 7.70291e-16 0 4.04403e-15 -19.9748 -1.02565 2.81938 -24 -4.77083e-15 9.54166e-15 -20 2.38542e-15 4.77083e-15 7.70291e-16 0 4.04403e-15 -19.7815 -3.00948 8.30515 -24 -4.77083e-15 3.18055e-15 -20 1.59028e-15 -1.59028e-15 
623.48 88.7107 415.536 33.7432 24.848 -52.309 -29.8826 -60.6824 -25.1942 1.0125 26.8589 -25.1584 8.6126 0.280888 23.9092 8.13809 -69.0878 -14.0446 -5.53315 34.4993 -0.0198664 -10.8981 -10.6716 19.9769 5.83493 8.16075 -1.85821 1.42898 2.09881 -0.268897 2.36967 3.48394 -0.369915 -0.48124 -0.87618 0.175522 -0.482988 -0.877509 0.181284 -8.46534 -15.6231 3.23197 -2.65637 -9.78431 -4.00129 71.6999 20.1117 65.0457 1.32249 -23.4029 -6.41652 36.6865 -8.92226 -12.0671 28.184 10.7294 19.1592 6.45924e-15 0 -10 1.01796e-14 2.78299e-15 -10 3.18055e-15 -3.18055e-15 3.18055e-15 19.9818 0.871897 2.3964 24 9.93923e-16 3.18055e-15 20 3.18055e-15 9.54166e-15 3.18055e-15 -3.18055e-15 3.18055e-15 20 -1.59028e-15 -0 24 1.35422e-15 9.54166e-15 20 -3.18055e-15 -0 3.18055e-15 -3.18055e-15 3.18055e-15 19.9748 -1.02565 -2.81938 24 9.93923e-16 6.36111e-15 20 1.59028e-15 -0 3.18055e-15 -3.18055e-15 3.18055e-15 19.7815 -3.00948 -8.30515 24 1.59028e-15 1.27222e-14 20 7.95139e-16 3.18055e-15 -0.856488 -11.1231 -28.8259 -38.2726 40.4402 -71.8548 33.3375 -67.7875 28.2531 4.93378 12.121 -6.39571 -28.184 10.7294 -19.1592 5.61801e-15 4.77083e-15 10 -5.60818e-16 3.18055e-15 10 3.72721e-16 1.59028e-15 2.5842e-15 -19.9818 0.871897 -2.3964 -24 4.77083e-15 1.11319e-14 -20 -4.77083e-15 -3.18055e-15 3.72721e-16 1.59028e-15 2.5842e-15 -20 1.59028e-15 1.59028e-15 -24 1.11319e-14 3.18055e-15 -20 -4.77083e-15 -3.18055e-15 3.72721e-16 1.59028e-15 2.5842e-15 -19.9748 -1.02565 2.81938 -24 4.77083e-15 -0 -20 3.97569e-15 4.77083e-15 3.72721e-16 1.59028e-15 2.5842e-15 -19.7815 -3.00948 8.30515 -24 -3.18055e-15 3.18055e-15 -20 -7.95139e-16 -1.59028e-15 
623.501 88.6991 415.557 33.8384 24.7063 -52.6389 -29.684 -60.8111 -24.8995 0.981751 26.8224 -25.1181 8.60617 0.360627 24.0251 8.5422 -69.04 -13.5854 -5.55653 34.6121 0.0110199 -10.8783 -10.7977 20.1188 5.83105 8.16016 -1.89565 1.42768 2.10033 -0.278875 2.36744 3.48602 -0.386886 -0.487013 -0.878513 0.185643 -0.488807 -0.879216 0.191473 -8.55053 -15.6481 3.41145 -2.62579 -9.73557 -4.01445 71.6067 20.0522 65.088 1.4054 -23.5206 -6.24392 36.7503 -8.87026 -12.0745 28.184 10.7294 19.1592 2.43261e-14 5.1684e-15 -10 1.32859e-14 4.37326e-15 -10 -7.06225e-31 -6.36111e-15 -6.36111e-15 19.9818 0.871897 2.3964 24 -2.28602e-15 3.18055e-15 20 0 1.59028e-14 -7.06225e-31 -6.36111e-15 -6.36111e-15 20 -4.77083e-15 6.36111e-15 24 -1.01877e-15 2.22639e-14 20 3.18055e-15 1.27222e-14 -7.06225e-31 -6.36111e-15 -6.36111e-15 19.9748 -1.02565 -2.81938 24 6.16232e-15 9.54166e-15 20 -4.77083e-15 1.27222e-14 -7.06225e-31 -6.36111e-15 -6.36111e-15 19.7815 -3.00948 -8.30515 24 3.97569e-16 -0 20 3.97569e-15 -0 -0.860302 -11.1258 -28.8841 -38.1953 40.4239 -71.9253 33.398 -67.7237 28.3246 5.06536 11.6325 -6.3397 -28.184 10.7294 -19.1592 -0 0 10 -6.17883e-15 -1.59028e-15 10 -2.48481e-16 0 2.75814e-15 -19.9818 0.871897 -2.3964 -24 -6.36111e-15 -0 -20 7.95139e-16 1.59028e-15 -2.48481e-16 0 2.75814e-15 -20 0 1.59028e-15 -24 3.18055e-15 4.77083e-15 -20 -3.97569e-15 1.59028e-15 -2.48481e-16 0 2.75814e-15 -19.9748 -1.02565 2.81938 -24 3.18055e-15 9.54166e-15 -20 -2.38542e-15 9.54166e-15 -2.48481e-16 0 2.75814e-15 -19.7815 -3.00948 8.30515 -24 -1.59028e-15 1.43125e-14 -20 0 7.95139e-15 
